<?xml version="1.0" encoding="utf-8"?>
<!-- Generator: Adobe Illustrator 26.0.3, SVG Export Plug-In . SVG Version: 6.00 Build 0)  -->
<svg version="1.1" id="Layer_1" xmlns="http://www.w3.org/2000/svg" xmlns:xlink="http://www.w3.org/1999/xlink" x="0px" y="0px"
	 viewBox="0 0 82 122.9" enable-background="new 0 0 82 122.9" xml:space="preserve">
<g>
	<path d="M20.9,66.7c-6.4-3.5-8-8.3-7.9-14.3c0.2-7.6,0-15.2,0.1-22.8C13.3,14,24.6,1.5,40.2,1c16-0.5,27.2,11.2,28.8,24.4
		c0.9,7.7,0.3,15.4,0.3,23.1c0,4.8,0.4,9.4,2.5,13.8c0.8,1.5,1.2,3.3,1.3,5c0.1,1.9,0.6,3.1,2.4,4.2c3,1.8,4.1,4.9,4.4,8.2
		c0.5,5.7,0.9,11.4,1.4,17.1c0.1,1.4,0.3,2.9-1.8,2.6c-2.3-0.2-2.2,1.3-2.2,2.9c0,5.6,0,11.2,0,16.8c0,1.3,0.5,2.7-1.8,2.8
		c-2.4,0.1-2.2-1.3-2.2-2.8c0-5.6-0.1-11.2,0.1-16.8c0.1-2.4-0.9-2.8-3-2.9c-2.7,0-1.9,1.4-1.6,2.9c0.3,2-0.2,4-0.8,5.9
		c-1.3,3.8-2.3,7.6-2.5,11.6c-0.1,1.5-0.5,2.1-2.1,2.2c-1.9,0-1.9-0.9-1.9-2.3c0.1-3.8,0.7-7.5,2.2-10.9c2.5-5.8-0.4-10.7-2-15.8
		c-0.3-1-0.9-1.1-1.7-0.5c-0.7,0.5-1.3,1.1-2.1,1.6c-1.1,0.8-2,2.1-3.6,1.1c-1.5-1-0.9-2.3-0.6-3.7c1.3-5.9,3.2-11.7,3.5-17.9
		c0.1-2.9-0.7-4.2-3.6-4.8c-8.3-1.9-16.4-2.1-24.6,0.1c-5.6,1.5-11.2,3.2-16.9,4.7c-3.4,0.9-5.3,3-5.5,6.6C6.3,84.2,6,88.4,5.5,92.6
		c-0.3,2.5,0.7,3.1,2.9,2.8c1.2-0.1,2.5-0.1,3.7,0c2.4,0.2,4.2-0.2,4.6-3c0.2-1.6,1.3-1.5,2.5-1.1c1.2,0.4,2,1,1.3,2.4
		c-3.4,6.6-2.7,13.1-0.2,19.8c0.7,1.9,0.6,4.2,0.9,6.3c0.2,1.4-0.2,2.1-1.8,2c-1.2-0.1-2.3,0-2.2-1.6c0.3-6.7-4.2-12.5-3.2-19.3
		c0.3-2-1.4-1.2-2.3-1.4c-1.6-0.2-2.5,0.2-2.5,2.1c0.1,5.6,0.1,11.2,0,16.8c0,1.3,1,3.4-1.9,3.4c-3.1,0.1-2.1-2.1-2.1-3.6
		c-0.1-5.3-0.1-10.7,0-16c0-1.7-0.1-3-2.3-2.8c-1.6,0.2-1.8-0.8-1.7-2.1C1.6,90.9,2,84.4,2.8,78c0.5-4.4,3.4-7.1,7.6-8.3
		C13.5,68.8,16.7,67.9,20.9,66.7z M25.1,27.1c0,8.7,0,16.7,0,24.8c0,2.3,0.8,3.5,3.3,3.4c8.6-0.1,17.1-0.1,25.7,0
		c2.2,0,3.2-0.8,3.2-3.1c0-6.3,0-12.7,0-19c0-1,0.1-2.2-1.3-2.3c-4.5-0.5-8.4-2.6-12.3-4.9c-0.9,5.6-0.9,5.5-6.5,4.9
		C33,30.4,29.3,28.9,25.1,27.1z M17.4,32.6c3.1-0.5,4.1-2.1,3.7-4.9c-0.2-1.1-0.1-2.2,0-3.4c0.2-3.1,1.4-3.9,4-2.2
		c3.2,2,6.6,3.4,10.2,4.5c3.2,0.9,4.3,0,3.9-3.2c-0.2-1.4-0.5-3.2,1.3-3.9c1.6-0.6,2.6,0.6,3.6,1.5c4.2,3.6,8.8,6.1,14.4,6.2
		c1.4,0,2.7,0.6,2.7,2.1c0,2.8,2.2,2.7,3.9,3.5c1-16-9.5-27.6-24.3-27.4C26.4,5.4,16.1,17.4,17.4,32.6z M65.4,43.7
		c-4.1,1.6-4.1,1.6-4.1,6.9c0,6.2-0.6,7-6.7,8.6c-1.1,0.3-1.5,0.7-1.4,1.7c0.1,1-0.2,2,1.3,2.6c5.9,2.4,7.3,4.8,6.6,11.1
		c-0.5,4.1-1.2,8.2-1.9,12.4c8-5.6,12.1-14.1,9.4-21.6C66,58.5,64.7,51.5,65.4,43.7z M72.9,74.6c-1.9,7.2-6.4,12.3-11.8,17.1
		c2.9-1.1,4.8-0.7,5.3,2.5c0.2,1.2,1.3,1.3,2.3,1.3c2,0,4-0.1,5.9,0c2,0.1,2.6-0.7,2.4-2.6c-0.5-4.7-0.9-9.4-1.3-14.1
		C75.5,77.2,74.8,75.8,72.9,74.6z M25.9,63.4c1.2-0.3,3.3,1,3.4-1.9c0.1-2.3-1.2-2.2-2.8-2.4c-3.5-0.5-5.2-2.7-5.3-6.1
		c-0.1-2.1-0.1-4.2,0-6.3c0.1-2.2-1.8-2.4-3-2.5c-1.5-0.2-0.8,1.5-0.9,2.3c-0.1,2.8-0.1,5.7,0,8.5C17.4,60.2,20.5,63.2,25.9,63.4z
		 M41.5,59.2c-2.1,0-4.2,0-6.3,0c-1.4,0-2,0.5-2,2c0,1.6,0.5,2.3,2.1,2.2c4-0.1,8-0.1,11.9,0c1.6,0,2.2-0.5,2.2-2.2
		c0-1.7-0.9-2.1-2.3-2C45.2,59.3,43.3,59.2,41.5,59.2z M20.8,35.7c-2,1.9-2,3.3,0,5.3C21.2,38.9,21.3,37.5,20.8,35.7z"/>
	<path d="M48.3,107.6c1.2,0.2,2.8-0.7,3,1.6c0.2,2.2-1,2.3-2.7,2.4c-5.1,0.4-10,1.8-14.4,4.5c-1.5,0.9-2.3,0.8-3.2-0.8
		c-1-1.7,0-2.1,1.1-2.8C37.2,109.7,42.6,108.1,48.3,107.6z"/>
	<path d="M37.4,45.3c-0.5-3.3,1.9-5,2.1-7.5c0.1-0.9,1.7-0.5,2.7-0.5c1.3,0.1,1,1.1,0.9,2c-0.1,2.5-2.1,4.4-2,7.1
		c0,1.3-1.6,0.8-2.5,0.8C36.8,47.2,37.5,45.7,37.4,45.3z"/>
	<path d="M35.3,36.8c-0.4,1.8-0.2,4.1-2.1,4.1c-2,0-1.9-2.3-1.9-3.8c0-1.4,0-3.5,1.8-3.6C35.3,33.4,34.6,35.8,35.3,36.8z"/>
	<path d="M51.2,37.1c-0.2,1.5,0.1,3.8-2,3.8c-1.7,0-1.9-2.1-1.9-3.6c0-1.6-0.1-3.8,2-3.8C51.2,33.5,51,35.7,51.2,37.1z"/>
</g>
</svg>
